<?xml version="1.0" encoding="UTF-8"?>
<svg xmlns="http://www.w3.org/2000/svg" xmlns:xlink="http://www.w3.org/1999/xlink" width="37.5pt" height="37.499999pt" viewBox="0 0 37.5 37.499999" version="1.2">
<defs>
<clipPath id="clip1">
  <path d="M 0.546875 7 L 14 7 L 14 30 L 0.546875 30 Z M 0.546875 7 "/>
</clipPath>
<clipPath id="clip2">
  <path d="M 37.1875 15.367188 L 19.511719 15.367188 L 19.511719 22.554688 L 29.6875 22.554688 C 28.738281 27.121094 24.773438 29.746094 19.511719 29.746094 C 13.304688 29.746094 8.304688 24.839844 8.304688 18.75 C 8.304688 12.660156 13.304688 7.753906 19.511719 7.753906 C 22.183594 7.753906 24.597656 8.6875 26.496094 10.207031 L 32.015625 4.796875 C 28.652344 1.917969 24.339844 0.144531 19.511719 0.144531 C 8.996094 0.144531 0.546875 8.433594 0.546875 18.75 C 0.546875 29.066406 8.996094 37.355469 19.511719 37.355469 C 28.996094 37.355469 37.617188 30.589844 37.617188 18.75 C 37.617188 17.652344 37.445312 16.464844 37.1875 15.367188 Z M 37.1875 15.367188 "/>
</clipPath>
<clipPath id="clip3">
  <path d="M 0.546875 0 L 37.007812 0 L 37.007812 19 L 0.546875 19 Z M 0.546875 0 "/>
</clipPath>
<clipPath id="clip4">
  <path d="M 37.1875 15.367188 L 19.511719 15.367188 L 19.511719 22.554688 L 29.6875 22.554688 C 28.738281 27.121094 24.773438 29.746094 19.511719 29.746094 C 13.304688 29.746094 8.304688 24.839844 8.304688 18.75 C 8.304688 12.660156 13.304688 7.753906 19.511719 7.753906 C 22.183594 7.753906 24.597656 8.6875 26.496094 10.207031 L 32.015625 4.796875 C 28.652344 1.917969 24.339844 0.144531 19.511719 0.144531 C 8.996094 0.144531 0.546875 8.433594 0.546875 18.75 C 0.546875 29.066406 8.996094 37.355469 19.511719 37.355469 C 28.996094 37.355469 37.617188 30.589844 37.617188 18.75 C 37.617188 17.652344 37.445312 16.464844 37.1875 15.367188 Z M 37.1875 15.367188 "/>
</clipPath>
<clipPath id="clip5">
  <path d="M 0.546875 0 L 37.007812 0 L 37.007812 37.007812 L 0.546875 37.007812 Z M 0.546875 0 "/>
</clipPath>
<clipPath id="clip6">
  <path d="M 37.1875 15.367188 L 19.511719 15.367188 L 19.511719 22.554688 L 29.6875 22.554688 C 28.738281 27.121094 24.773438 29.746094 19.511719 29.746094 C 13.304688 29.746094 8.304688 24.839844 8.304688 18.75 C 8.304688 12.660156 13.304688 7.753906 19.511719 7.753906 C 22.183594 7.753906 24.597656 8.6875 26.496094 10.207031 L 32.015625 4.796875 C 28.652344 1.917969 24.339844 0.144531 19.511719 0.144531 C 8.996094 0.144531 0.546875 8.433594 0.546875 18.75 C 0.546875 29.066406 8.996094 37.355469 19.511719 37.355469 C 28.996094 37.355469 37.617188 30.589844 37.617188 18.75 C 37.617188 17.652344 37.445312 16.464844 37.1875 15.367188 Z M 37.1875 15.367188 "/>
</clipPath>
<clipPath id="clip7">
  <path d="M 10 7 L 37.007812 7 L 37.007812 37.007812 L 10 37.007812 Z M 10 7 "/>
</clipPath>
<clipPath id="clip8">
  <path d="M 37.1875 15.367188 L 19.511719 15.367188 L 19.511719 22.554688 L 29.6875 22.554688 C 28.738281 27.121094 24.773438 29.746094 19.511719 29.746094 C 13.304688 29.746094 8.304688 24.839844 8.304688 18.75 C 8.304688 12.660156 13.304688 7.753906 19.511719 7.753906 C 22.183594 7.753906 24.597656 8.6875 26.496094 10.207031 L 32.015625 4.796875 C 28.652344 1.917969 24.339844 0.144531 19.511719 0.144531 C 8.996094 0.144531 0.546875 8.433594 0.546875 18.75 C 0.546875 29.066406 8.996094 37.355469 19.511719 37.355469 C 28.996094 37.355469 37.617188 30.589844 37.617188 18.75 C 37.617188 17.652344 37.445312 16.464844 37.1875 15.367188 Z M 37.1875 15.367188 "/>
</clipPath>
</defs>
<g id="surface1">
<g clip-path="url(#clip1)" clip-rule="nonzero">
<g clip-path="url(#clip2)" clip-rule="nonzero">
<path style=" stroke:none;fill-rule:nonzero;fill:rgb(98.429871%,73.728943%,1.959229%);fill-opacity:1;" d="M -1.179688 29.746094 L -1.179688 7.753906 L 13.476562 18.75 Z M -1.179688 29.746094 "/>
</g>
</g>
<g clip-path="url(#clip3)" clip-rule="nonzero">
<g clip-path="url(#clip4)" clip-rule="nonzero">
<path style=" stroke:none;fill-rule:nonzero;fill:rgb(91.758728%,26.269531%,20.779419%);fill-opacity:1;" d="M -1.179688 7.753906 L 13.476562 18.75 L 19.511719 13.589844 L 40.203125 10.292969 L 40.203125 -1.546875 L -1.179688 -1.546875 Z M -1.179688 7.753906 "/>
</g>
</g>
<g clip-path="url(#clip5)" clip-rule="nonzero">
<g clip-path="url(#clip6)" clip-rule="nonzero">
<path style=" stroke:none;fill-rule:nonzero;fill:rgb(20.388794%,65.879822%,32.548523%);fill-opacity:1;" d="M -1.179688 29.746094 L 24.6875 10.292969 L 31.496094 11.136719 L 40.203125 -1.546875 L 40.203125 39.046875 L -1.179688 39.046875 Z M -1.179688 29.746094 "/>
</g>
</g>
<g clip-path="url(#clip7)" clip-rule="nonzero">
<g clip-path="url(#clip8)" clip-rule="nonzero">
<path style=" stroke:none;fill-rule:nonzero;fill:rgb(25.878906%,52.159119%,95.689392%);fill-opacity:1;" d="M 40.203125 39.046875 L 13.476562 18.75 L 10.027344 16.210938 L 40.203125 7.753906 Z M 40.203125 39.046875 "/>
</g>
</g>
</g>
</svg>
